<svg width="229" height="167" viewBox="0 0 229 167" fill="none" xmlns="http://www.w3.org/2000/svg">
<path d="M90.2639 24.0419C88.1263 21.8819 85.9887 19.7218 83.8643 17.5483C83.3892 17.0653 82.6503 17.8166 83.1253 18.2996C85.263 20.4597 87.4006 22.6198 89.525 24.7933C90 25.2763 90.7389 24.5249 90.2639 24.0419Z" fill="#F674B4"/>
<path d="M132.779 12.1279C131.525 13.6038 130.271 15.0662 129.018 16.542C128.569 17.0653 129.335 17.8166 129.77 17.2933C131.024 15.8175 132.277 14.3551 133.531 12.8793C133.979 12.3694 133.214 11.6047 132.779 12.1279Z" fill="#7BAEED"/>
<path d="M144.179 20.0035C141.065 21.4391 137.964 22.8881 134.85 24.3237C134.23 24.6189 134.771 25.5312 135.391 25.2494C138.505 23.8139 141.606 22.3649 144.72 20.9293C145.353 20.6341 144.812 19.7218 144.179 20.0035Z" fill="#F674B4"/>
<path d="M136.869 101.362C128.094 102.61 128.794 115.933 138.492 115.866C149.497 115.785 147.715 99.8058 136.869 101.362Z" fill="#FFCB56"/>
<path d="M84.9463 109.318L86.4901 114.001L90.9105 110.418L84.9463 109.318Z" fill="#F674B4"/>
<path d="M15.4872 59.368L20.0396 70.893L27.4684 61.4476L15.4872 59.368Z" fill="#7BAEED"/>
<path d="M198.134 36.0498L187.908 49.1311L200.562 60.6292L213.097 49.1311L198.134 36.0498Z" fill="#F674B4"/>
<path d="M192.024 45.8574H185.493L184.451 53.6659L190.586 55.7321L192.024 45.8574Z" fill="#FFCB56"/>
<path d="M28.8671 40.9604C28.5768 43.0266 28.2865 45.0794 27.9962 47.1455C27.9039 47.8164 28.9067 48.1115 29.0123 47.4273C29.3026 45.3611 29.5928 43.3083 29.8831 41.2422C29.9755 40.5713 28.9595 40.2762 28.8671 40.9604Z" fill="#FFCB56"/>
<path d="M194.452 30.2404C194.347 29.5696 193.331 29.8513 193.436 30.5221C193.582 31.4076 193.727 32.2931 193.872 33.1786C193.977 33.8495 194.993 33.5677 194.888 32.8969C194.743 32.0114 194.598 31.1259 194.452 30.2404Z" fill="#7BAEED"/>
<path d="M216.119 56.3627C214.522 56.5103 212.926 56.6579 211.342 56.8054C210.669 56.8725 210.669 57.9324 211.342 57.8654C212.939 57.7178 214.535 57.5702 216.119 57.4226C216.778 57.3689 216.792 56.309 216.119 56.3627Z" fill="#7BAEED"/>
<path d="M21.9001 50.2178C21.0292 49.6275 20.1583 49.0371 19.2875 48.4602C18.7201 48.0846 18.1923 48.9969 18.7597 49.386C19.6305 49.9763 20.5014 50.5666 21.3723 51.1436C21.9397 51.5192 22.4675 50.5935 21.9001 50.2178Z" fill="#FFCB56"/>
<path d="M74.3374 26.2959C59.8228 30.294 46.5617 37.9549 35.7417 48.5809C35.2535 49.0639 35.9924 49.8153 36.4806 49.3323C47.1819 38.8404 60.2714 31.2869 74.6145 27.3289C75.261 27.1411 74.9839 26.1214 74.3374 26.2959Z" fill="#7BAEED"/>
<path d="M178.288 31.2064C172.694 26.3898 166.202 23.0222 159.063 21.2781C158.403 21.1171 158.126 22.1502 158.786 22.3112C165.74 24.0151 172.087 27.2619 177.536 31.9577C178.051 32.4005 178.803 31.6492 178.288 31.2064Z" fill="#7BAEED"/>
<path d="M156.358 163.535C156.081 163.535 155.844 163.307 155.83 163.012L153.917 94.7746C153.904 94.4794 154.141 94.2379 154.432 94.2245C154.709 94.2245 154.96 94.4526 154.973 94.7477L156.886 162.985C156.899 163.28 156.662 163.522 156.371 163.535C156.358 163.535 156.358 163.535 156.358 163.535Z" fill="#000200"/>
<path d="M71.8832 166.098C71.5929 166.098 71.3553 165.856 71.3553 165.561V155.27C71.3553 154.975 71.5929 154.734 71.8832 154.734C72.1734 154.734 72.411 154.975 72.411 155.27V165.561C72.411 165.87 72.1734 166.098 71.8832 166.098Z" fill="#000200"/>
<path d="M103.894 126.505C103.881 126.505 103.868 126.505 103.855 126.505L88.9576 125.244C88.8125 125.23 88.6805 125.163 88.6013 125.056C88.509 124.949 88.4694 124.801 88.4826 124.654L89.4194 116.027C89.4458 115.758 89.6701 115.557 89.934 115.557H103.894C104.185 115.557 104.422 115.799 104.422 116.094V125.982C104.422 126.129 104.356 126.277 104.251 126.371C104.145 126.451 104.013 126.505 103.894 126.505ZM89.5646 124.224L103.367 125.391V116.617H90.3959L89.5646 124.224Z" fill="#000200"/>
<path d="M141.408 112.189C136.143 112.189 133.465 108.392 133.214 104.851C132.963 101.376 134.916 97.3238 139.785 96.6261C143.189 96.1297 146.158 97.3103 147.927 99.8327C149.642 102.275 149.919 105.629 148.626 108.205C147.346 110.754 144.799 112.176 141.474 112.203C141.461 112.189 141.435 112.189 141.408 112.189ZM139.93 97.686C135.721 98.2898 134.045 101.778 134.256 104.783C134.481 107.95 136.79 111.129 141.408 111.129C141.435 111.129 141.461 111.129 141.487 111.129C144.403 111.103 146.62 109.895 147.715 107.722C148.837 105.508 148.586 102.583 147.095 100.463C146.185 99.1618 144.047 97.0957 139.93 97.686Z" fill="#000200"/>
<path d="M69.6927 110.74C69.3233 108.057 68.0961 104.233 69.5872 101.228C71.7116 96.9615 75.327 92.2523 76.6861 93.8891C78.9161 96.559 85.065 135.4 83.9302 146.415C82.7955 157.43 72.279 163.012 72.279 163.012L71.8963 155.284C71.8963 155.284 77.0028 150.427 77.2799 140.968C77.557 131.509 71.8435 104.891 71.8435 104.891L69.6927 110.74Z" fill="#000200"/>
<path d="M160.409 145.57C159.631 149.354 157.981 152.439 156.107 154.895C156.041 153.835 155.975 152.761 155.909 151.701C155.553 146.214 153.957 97.0419 154.616 95.4051C153.627 90.2665 157.018 96.3174 158.733 100.222C160.185 103.522 161.926 107.815 161.676 112.042C161.953 125.069 161.676 139.425 160.409 145.57Z" fill="#000200"/>
<path d="M62.7917 128.813C62.5014 128.813 62.2639 128.571 62.2639 128.276L62.2375 87.7174C62.2375 84.645 64.5994 82.1763 67.6079 82.0958C80.5259 81.7604 80.5787 81.8275 80.803 82.1092C80.9086 82.2434 80.9482 82.4178 80.9086 82.5788C80.8426 82.8606 80.5523 83.0484 80.2752 82.9679C80.262 82.9679 80.2488 82.9545 80.2356 82.9545C79.8794 82.9277 77.8737 82.8874 67.6343 83.1692C65.1932 83.2362 63.2799 85.2353 63.2799 87.7174L63.3063 128.276C63.3195 128.571 63.082 128.813 62.7917 128.813Z" fill="#000200"/>
<path d="M158.113 106.528C157.823 106.528 157.585 106.286 157.585 105.991V86.7246C157.585 84.2157 155.58 82.1764 153.112 82.1764C152.822 82.1764 152.584 81.9349 152.584 81.6397C152.584 81.3445 152.822 81.103 153.112 81.103C156.16 81.103 158.628 83.6254 158.628 86.7112V105.978C158.628 106.286 158.403 106.528 158.113 106.528Z" fill="#000200"/>
<path d="M65.0876 166.098C64.7973 166.098 64.5598 165.856 64.5598 165.561V161.361C64.5598 161.066 64.7973 160.825 65.0876 160.825C65.3779 160.825 65.6154 161.066 65.6154 161.361V165.561C65.6154 165.869 65.3779 166.098 65.0876 166.098Z" fill="#000200"/>
<path d="M144.852 81.6531C144.351 73.5897 138.043 74.5959 138.043 74.5959C136.288 69.7793 131.749 69.1756 131.749 69.1756C131.367 63.2857 128.477 57.1945 115.915 57.8519C103.353 58.5093 97.9038 63.9699 98.3393 72.4895C93.1008 72.5566 91.2271 75.7766 91.2535 77.8964C90.2375 75.5351 89.9604 72.7176 89.934 69.4708C89.7757 55.0747 96.6107 50.352 122.565 50.0971C144.205 49.8824 146.33 54.6051 146.95 65.4189C147.359 72.8249 147.412 78.1245 144.852 81.6531Z" fill="#000200"/>
<path d="M123.793 87.865C94.3544 87.865 89.5382 82.4447 89.4063 69.4842C89.3403 63.2589 90.5674 59.1668 93.4044 56.2285C97.8115 51.6534 106.256 49.7215 122.552 49.5739V50.1105V49.5739C144.271 49.3726 146.818 54.2294 147.465 65.3921C147.913 73.308 147.966 79.1979 144.535 82.9009C141.303 86.3758 135.101 87.865 123.793 87.865ZM122.566 50.6338C106.573 50.7814 98.3525 52.6194 94.1565 56.9664C91.5307 59.69 90.3827 63.5406 90.4487 69.4708C90.5806 81.2506 93.9058 86.7917 123.793 86.7917C134.784 86.7917 140.762 85.4098 143.77 82.163C146.924 78.7685 146.858 73.0933 146.422 65.4458C145.855 55.5711 144.522 50.4325 122.566 50.6338Z" fill="#000200"/>
<path d="M103.881 79.6674C103.815 79.6674 103.736 79.654 103.67 79.6272C103.406 79.5064 103.288 79.1978 103.406 78.9295C105.267 74.5959 109.925 63.9565 109.925 63.9565C110.043 63.6882 110.347 63.5674 110.598 63.6747C110.743 63.7284 124.901 69.5781 131.657 68.5182C131.947 68.4779 132.211 68.6792 132.251 68.9609C132.29 69.2561 132.106 69.5244 131.815 69.5647C125.416 70.5709 113.263 65.8885 110.677 64.8554C109.753 66.9618 105.992 75.5619 104.356 79.3588C104.277 79.5467 104.092 79.6674 103.881 79.6674Z" fill="#000200"/>
<path d="M97.8907 83.8132C97.64 83.8132 97.4157 83.6254 97.3761 83.3704C97.2046 82.2569 97.4553 81.2506 98.1018 80.459C99.131 79.2247 101.084 78.6075 103.881 78.6075C104.172 78.6075 104.409 78.849 104.409 79.1442C104.409 79.4394 104.172 79.6809 103.881 79.6809C101.427 79.6809 99.7116 80.1907 98.8935 81.1567C98.4317 81.7068 98.2734 82.391 98.4053 83.2094C98.4449 83.5046 98.2602 83.7729 97.9699 83.8266C97.9435 83.8132 97.9171 83.8132 97.8907 83.8132Z" fill="#000200"/>
<path d="M120.454 85.4232C120.164 85.4232 119.927 85.1817 119.927 84.8865C119.927 84.5914 120.164 84.3499 120.454 84.3499C121.431 84.3499 122.236 84.0815 122.618 83.6388C122.829 83.3839 122.895 83.0753 122.843 82.6996C122.698 81.8544 120.863 81.3848 119.993 81.2909C119.729 81.264 119.531 81.036 119.531 80.7676V75.884C119.531 75.5888 119.768 75.3473 120.059 75.3473C120.349 75.3473 120.586 75.5888 120.586 75.884V80.298C121.563 80.4725 123.648 81.0225 123.885 82.5252C124.004 83.2095 123.845 83.84 123.436 84.323C122.829 85.0341 121.774 85.4232 120.454 85.4232Z" fill="#000200"/>
<path d="M113.118 73.1872C112.26 73.2811 111.429 73.4286 110.598 73.6836C109.951 73.8848 110.386 74.8508 111.033 74.6496C111.759 74.4215 112.524 74.3142 113.289 74.2337C113.962 74.1532 113.791 73.1067 113.118 73.1872Z" fill="#000200"/>
<path d="M128.266 73.5896C127.725 73.2274 127.131 72.9724 126.616 72.57C126.089 72.154 125.35 72.9188 125.891 73.3347C126.471 73.7909 127.144 74.0994 127.751 74.5153C128.319 74.891 128.82 73.9519 128.266 73.5896Z" fill="#000200"/>
<path d="M132.462 87.1942C132.172 87.1942 131.934 86.9527 131.934 86.6709C131.894 81.6531 131.763 77.3866 131.222 69.2159C130.707 61.4208 125.706 57.8788 115.942 58.3886C109.186 58.7374 104.356 60.495 101.585 63.6211C99.5929 65.8751 98.6692 68.8402 98.8539 72.4627C98.8671 72.7579 98.6428 73.0128 98.3525 73.0262C98.0358 73.0262 97.8115 72.8115 97.7983 72.5164C97.6004 68.6121 98.6032 65.3787 100.794 62.91C103.763 59.5693 108.829 57.6909 115.876 57.3287C126.194 56.792 131.71 60.7634 132.251 69.1488C132.792 77.3195 132.924 81.7604 132.963 86.6709C132.99 86.9527 132.765 87.1942 132.462 87.1942C132.475 87.1942 132.462 87.1942 132.462 87.1942Z" fill="#000200"/>
<path d="M73.5458 101.389C73.4666 101.389 73.3874 101.376 73.3214 101.335C73.0575 101.215 72.952 100.893 73.0707 100.624L73.4006 99.9265C75.4195 95.6869 81.5552 82.8069 81.1725 70.9734C80.8031 59.8108 80.9086 52.1364 85.3554 47.3869C90.132 42.2886 99.4477 40.4505 122.288 40.0883C141.276 39.726 152.07 41.0945 153.363 73.5762C153.442 75.6558 153.508 77.5878 153.561 79.3857C153.772 86.2684 153.917 91.246 155.118 95.2441C155.197 95.5259 155.052 95.8211 154.775 95.915C154.498 95.9955 154.207 95.8479 154.115 95.5661C152.875 91.4338 152.729 86.4026 152.518 79.4259C152.466 77.6281 152.4 75.6961 152.32 73.6165C151.001 40.5847 139.587 40.8128 122.315 41.1482C99.804 41.497 90.673 43.2546 86.1207 48.1114C81.951 52.5523 81.8719 60.0388 82.2281 70.9332C82.624 83.0216 76.3959 96.0894 74.3507 100.383L74.0208 101.08C73.9284 101.282 73.7437 101.389 73.5458 101.389Z" fill="#000200"/>
<path d="M91.2536 77.9099L90.7258 77.8965C90.7126 76.6085 91.2668 75.2668 92.2828 74.2069C93.246 73.2006 95.0802 71.9931 98.3394 71.9529C98.6033 71.9529 98.8672 72.181 98.8672 72.4761C98.8672 72.7713 98.6428 73.0128 98.3525 73.0128C95.4496 73.053 93.8662 74.0861 93.0349 74.9448C92.23 75.7766 91.7682 76.8768 91.7814 77.8831L91.2536 77.9099Z" fill="#000200"/>
<path d="M144.364 82.4715C144.364 82.5117 144.364 82.5386 144.377 82.5788C144.694 82.2702 145.037 81.9751 145.393 81.7067C145.393 81.6799 145.393 81.6531 145.393 81.6262C145.221 78.7819 144.324 76.6889 142.741 75.4009C141.118 74.0727 139.244 73.9922 138.413 74.0324C136.473 69.3232 132.026 68.6657 131.842 68.6389C131.551 68.5987 131.287 68.7999 131.248 69.0951C131.208 69.3902 131.406 69.6586 131.697 69.6988C131.868 69.7257 135.945 70.3428 137.582 74.7837C137.674 75.0252 137.898 75.1594 138.149 75.1192C138.175 75.1192 140.352 74.7972 142.094 76.2327C143.427 77.3329 144.192 79.1576 144.351 81.6933C144.351 81.9482 144.364 82.2032 144.364 82.4715Z" fill="#000200"/>
<path d="M112.181 83.9205C111.455 83.9205 110.703 83.7461 110.017 83.3973C108.196 82.4715 107.141 80.5932 107.141 78.2318C107.141 77.9367 107.378 77.6952 107.668 77.6952C107.959 77.6952 108.196 77.9367 108.196 78.2318C108.209 80.1773 109.041 81.7068 110.492 82.4447C111.732 83.0753 113.184 82.9679 114.2 82.2032C115.361 81.3177 115.796 79.7077 115.44 77.6683C115.387 77.3732 115.585 77.1048 115.862 77.0512C116.153 76.9975 116.417 77.1988 116.469 77.4805C117.05 80.7944 115.691 82.391 114.82 83.0484C114.068 83.6253 113.131 83.9205 112.181 83.9205Z" fill="#000200"/>
<path d="M127.039 83.3168C126.392 83.3168 125.746 83.1692 125.152 82.8472C123.45 81.9751 122.486 80.0431 122.486 77.5745C122.486 77.2793 122.724 77.0378 123.014 77.0378C123.304 77.0378 123.542 77.2793 123.542 77.5745C123.542 79.6272 124.307 81.2104 125.64 81.8946C126.682 82.4313 127.91 82.3374 128.846 81.6531C129.994 80.8079 130.483 79.2113 130.179 77.2793C130.14 76.9842 130.324 76.7158 130.615 76.6622C130.905 76.6219 131.169 76.8097 131.222 77.1049C131.591 79.4394 130.958 81.4116 129.467 82.5118C128.728 83.0485 127.896 83.3168 127.039 83.3168Z" fill="#000200"/>
<path d="M116.074 80.204C115.889 80.204 115.704 80.1101 115.612 79.9223C115.467 79.6674 115.572 79.3454 115.823 79.1978C115.981 79.1039 119.781 77.0377 123.225 78.7014C123.489 78.8221 123.595 79.1441 123.476 79.4124C123.357 79.6808 123.041 79.7881 122.777 79.6674C119.808 78.2318 116.364 80.1101 116.324 80.1369C116.245 80.1772 116.153 80.204 116.074 80.204Z" fill="#000200"/>
<path d="M124.954 77.7756L124.848 78.8355C124.703 80.204 126.788 80.4187 126.933 79.0636L127.039 78.0037C127.171 76.6352 125.086 76.4071 124.954 77.7756Z" fill="#000200"/>
<path d="M110.822 78.1112L110.716 79.1711C110.571 80.5396 112.656 80.7543 112.801 79.3992L112.907 78.3393C113.052 76.9708 110.967 76.7427 110.822 78.1112Z" fill="#000200"/>
<path d="M54.5844 134.474C53.8719 134.474 53.1197 134.394 52.3148 134.206C47.2215 133.066 45.5062 124.345 43.5137 114.256C42.9595 111.425 42.3789 108.5 41.706 105.655C41.5872 105.186 41.4816 104.743 41.3761 104.274C40.1489 99.1216 38.935 94.2379 37.378 91.2057C33.0236 82.6593 25.3044 77.0243 22.3883 76.4072C21.9529 76.3132 21.755 76.3669 21.7154 76.3937C21.6494 76.5547 21.4251 77.5341 24.3808 80.62C25.7267 82.0153 26.0434 84.0815 25.2121 85.8793C24.5523 87.3149 24.3016 88.6297 24.4732 89.8104C24.5127 90.1056 24.3148 90.3739 24.0377 90.4141C23.7474 90.4544 23.4835 90.2531 23.4439 89.9714C23.246 88.5761 23.5231 87.0466 24.2752 85.4231C24.9218 84.0278 24.6711 82.4312 23.6419 81.3579C21.214 78.8221 20.2771 77.0512 20.7785 75.9376C20.8841 75.7095 21.1744 75.307 21.9133 75.2802C21.9265 75.2802 21.9529 75.2802 21.9661 75.2802C24.9746 75.2802 33.657 81.5726 38.3148 90.7093C39.9246 93.8488 41.165 98.7996 42.4053 104.019C42.5109 104.475 42.6164 104.931 42.7352 105.387C43.4081 108.258 43.9887 111.197 44.5561 114.041C46.3902 123.365 48.1188 132.167 52.5523 133.16C60.9576 135.051 64.2564 125.257 68.0566 113.934C69.5608 109.479 71.1047 104.864 73.0839 100.611C73.2027 100.342 73.5194 100.235 73.7833 100.356C74.0472 100.477 74.1527 100.799 74.034 101.067C72.0811 105.253 70.5373 109.841 69.0594 114.269C65.5627 124.64 62.2639 134.474 54.5844 134.474Z" fill="#000200"/>
<path d="M16.8332 88.6968C16.7672 88.6968 16.7012 88.6834 16.6352 88.6566C13.6927 87.3954 5.56455 84.5108 3.26861 86.2282C2.83317 86.5636 2.64844 87.0734 2.71441 87.7979C2.7408 88.0931 2.52968 88.348 2.23939 88.3748C1.9491 88.4017 1.69839 88.187 1.672 87.8918C1.54005 86.5099 2.12063 85.7452 2.64844 85.3695C4.68048 83.8534 9.50989 85.0073 13.0462 86.1745C11.9114 85.6513 10.7106 85.2219 9.62864 84.8328C7.38548 84.0413 5.74928 83.4643 5.40621 82.391C5.31385 82.1093 5.27426 81.6531 5.64372 81.103C7.80772 77.8696 20.5542 82.8337 24.4072 84.4437C24.6711 84.5511 24.803 84.8597 24.6974 85.1414C24.5919 85.4097 24.2752 85.5439 24.0113 85.4366C14.8011 81.6128 7.5966 80.0833 6.5146 81.7202C6.36945 81.9348 6.39584 82.0287 6.40904 82.069C6.59377 82.6325 8.3883 83.2765 9.97171 83.84C12.4392 84.7121 15.5268 85.8122 17.2422 87.8247C17.4006 88.0126 17.4137 88.2809 17.2686 88.4822C17.163 88.6163 17.0047 88.6968 16.8332 88.6968Z" fill="#000200"/>
<path d="M14.2997 90.3605C13.4816 90.1458 12.492 89.8238 11.4364 89.5018C7.35907 88.2138 2.74078 86.7514 1.27613 88.4687C0.616372 89.2335 0.682347 90.4276 1.47405 92.1181C1.47405 92.1315 1.48725 92.1315 1.48725 92.1449C1.79074 92.1315 2.09422 92.1449 2.38452 92.1717C2.47688 92.0241 2.49008 91.8229 2.41091 91.6619C1.83032 90.441 1.71157 89.5689 2.05464 89.1664C3.07066 87.9723 7.90007 89.5152 11.1065 90.5215C12.1753 90.8569 13.1781 91.1789 14.0226 91.407C14.2997 91.4741 14.59 91.3131 14.656 91.0313C14.7483 90.7227 14.59 90.4276 14.2997 90.3605Z" fill="#000200"/>
<path d="M51.2328 166.098C49.4383 166.098 47.5514 165.91 45.5589 165.507C25.8718 161.496 22.3487 133.723 20.6598 120.387C20.5014 119.126 20.3563 118.012 20.2243 117.086C19.9736 115.396 19.6833 113.786 19.3798 112.324C19.3139 111.948 19.2347 111.586 19.1423 111.223C17.7173 104.837 15.8568 100.584 14.0226 99.5241C11.9378 98.3166 9.31198 97.6189 6.98964 97.0017C3.74365 96.1431 1.1838 95.4588 0.655996 93.6744C0.497655 93.1377 0.339315 92.3596 0.840729 91.8095C1.79078 90.7764 4.25826 91.2862 11.951 93.0438C12.2281 93.1109 12.4128 93.3926 12.3469 93.6744C12.2809 93.9561 12.0038 94.144 11.7267 94.0769C6.39587 92.856 2.19982 91.89 1.61924 92.5206C1.52687 92.6279 1.54007 92.9231 1.67202 93.3524C2.02829 94.5599 4.57494 95.2441 7.26674 95.9552C9.64186 96.5858 12.3469 97.2969 14.5504 98.5849C17.4138 100.235 19.3007 107.051 20.1716 110.955C20.2639 111.317 20.3563 111.72 20.4223 112.109C20.7389 113.585 21.0292 115.208 21.2799 116.925C21.4119 117.865 21.557 118.978 21.7154 120.253C23.378 133.347 26.8351 160.61 45.7832 164.474C66.3808 168.687 76.132 148.092 76.2243 147.878C76.3431 147.609 76.6598 147.502 76.9237 147.623C77.1876 147.744 77.2931 148.066 77.1744 148.334C77.0688 148.522 68.7427 166.098 51.2328 166.098Z" fill="#000200"/>
<path d="M19.6437 111.062C19.7493 111.438 19.8153 111.814 19.8944 112.189C24.0641 112.968 28.3921 112.847 32.5485 111.733C36.2696 110.727 40.0829 108.634 42.2469 105.521C42.1282 105.052 42.0226 104.596 41.9171 104.139C39.6739 108.218 34.3299 110.472 29.804 111.25C26.3996 111.841 22.9689 111.76 19.6437 111.062Z" fill="#000200"/>
<path d="M58.7408 164.944C58.5165 164.944 58.3053 164.796 58.2394 164.568C57.2365 161.241 53.7794 157.887 49.2403 155.847C43.5268 153.271 37.18 153.244 31.8492 155.767C31.5853 155.887 31.2818 155.78 31.1498 155.512C31.0311 155.243 31.1366 154.935 31.4005 154.801C37.0085 152.144 43.6588 152.158 49.6625 154.868C54.4788 157.041 58.147 160.637 59.2422 164.259C59.3214 164.541 59.1762 164.836 58.8991 164.93C58.8463 164.93 58.7936 164.944 58.7408 164.944Z" fill="#000200"/>
<path d="M172.997 127.753C165.054 127.753 161.122 115.383 158.179 106.139L157.981 105.521C156.543 100.96 155.303 97.0152 153.983 95.2576C153.811 95.0295 153.851 94.6941 154.075 94.5063C154.3 94.3318 154.63 94.3721 154.814 94.6002C156.239 96.5053 157.519 100.517 158.984 105.173L159.182 105.79C163.035 117.918 167.152 128.625 175.095 126.357C183.593 123.929 185.585 109.305 187.353 96.398L187.393 96.0894C187.472 95.6064 187.525 95.1502 187.591 94.6807C188.317 89.3542 189.082 84.3096 190.375 81.0225C194.149 71.4161 202.264 64.2651 205.22 64.037C205.972 63.9833 206.275 64.3456 206.407 64.5736C207.027 65.6336 206.249 67.5119 204.032 70.3026C203.135 71.4296 203.042 73.0261 203.795 74.2873C204.731 75.8571 205.167 77.3731 205.088 78.7953C205.074 79.0905 204.824 79.3186 204.533 79.3051C204.243 79.2917 204.019 79.0368 204.032 78.7416C204.085 77.5341 203.702 76.2193 202.884 74.8374C201.908 73.2006 202.04 71.1076 203.201 69.6317C205.893 66.2239 205.576 65.2579 205.484 65.1103C205.457 65.0969 205.259 65.0566 204.824 65.1908C201.974 66.1031 194.835 72.4761 191.325 81.4116C190.072 84.5913 189.32 89.5689 188.594 94.8148C188.528 95.2844 188.462 95.7406 188.396 96.2236L188.356 96.5188C186.549 109.748 184.503 124.747 175.346 127.35C174.541 127.645 173.749 127.753 172.997 127.753Z" fill="#000200"/>
<path d="M211.514 76.9304C211.369 76.9304 211.223 76.8633 211.118 76.7559C210.959 76.5681 210.946 76.2998 211.078 76.0985C212.596 73.925 215.551 72.5297 217.926 71.4161C219.457 70.705 221.186 69.8866 221.304 69.3097C221.318 69.2694 221.331 69.1755 221.172 68.9743C219.932 67.4582 212.912 69.6988 204.111 74.408C203.861 74.5422 203.544 74.4483 203.399 74.1799C203.267 73.925 203.359 73.603 203.623 73.4554C207.304 71.4832 219.51 65.2713 221.977 68.2766C222.386 68.773 222.4 69.2292 222.334 69.5244C222.096 70.6111 220.526 71.349 218.375 72.3687C217.333 72.8651 216.172 73.4018 215.09 74.0458C218.494 72.5297 223.205 70.8929 225.369 72.2077C225.923 72.5431 226.582 73.2274 226.582 74.6227C226.582 74.9179 226.345 75.1594 226.055 75.1594C225.764 75.1594 225.527 74.9179 225.527 74.6227C225.527 73.8982 225.303 73.4018 224.828 73.12C222.386 71.6442 214.562 75.3204 211.764 76.8633C211.685 76.9169 211.606 76.9304 211.514 76.9304Z" fill="#000200"/>
<path d="M214.43 79.3588C214.219 79.3588 214.021 79.2247 213.942 79.01C213.836 78.7283 213.981 78.4331 214.258 78.3258C215.05 78.0306 216.013 77.6147 217.029 77.1853C220.961 75.4949 225.421 73.5763 227.044 75.146C227.77 75.8437 227.823 77.0378 227.189 78.7953C227.084 79.0771 226.794 79.2113 226.517 79.1173C226.239 79.0234 226.107 78.7148 226.2 78.4331C226.662 77.1585 226.701 76.2864 226.319 75.9108C225.197 74.824 220.526 76.8365 217.438 78.1648C216.409 78.6075 215.433 79.0234 214.628 79.332C214.549 79.3454 214.483 79.3588 214.43 79.3588Z" fill="#000200"/>
<path d="M178.077 158.625C163.259 158.625 156.002 148.173 155.923 148.052C155.764 147.811 155.817 147.475 156.055 147.314C156.292 147.153 156.622 147.207 156.78 147.448C156.873 147.583 166.03 160.718 184.86 156.84C204.56 152.788 207.819 123.701 209.561 108.071C209.666 107.131 209.759 106.246 209.864 105.401C209.957 104.569 210.009 103.737 210.062 102.905C210.115 102.1 210.168 101.309 210.247 100.53C210.273 100.155 210.326 99.7522 210.392 99.3497C210.88 95.3918 212.107 88.4286 214.799 86.4966C216.871 85.0073 219.484 84.0279 221.793 83.1558C224.405 82.1764 226.873 81.2506 227.11 80.0163C227.189 79.5736 227.189 79.2784 227.084 79.1845C226.451 78.6076 222.36 79.9895 217.174 81.7336C216.897 81.8276 216.607 81.68 216.515 81.3982C216.422 81.1165 216.567 80.8213 216.844 80.7274C224.326 78.2185 226.741 77.4537 227.783 78.3929C228.337 78.8893 228.258 79.6809 228.153 80.231C227.81 82.0556 225.316 82.9948 222.162 84.1621C219.919 85.0073 217.372 85.9599 215.406 87.3686C213.678 88.603 212.226 93.0305 211.435 99.4973C211.369 99.8864 211.329 100.262 211.303 100.624C211.21 101.402 211.171 102.167 211.118 102.959C211.065 103.804 211.012 104.649 210.907 105.508C210.814 106.353 210.709 107.239 210.603 108.164C208.822 124.063 205.51 153.647 185.071 157.846C182.577 158.41 180.254 158.625 178.077 158.625Z" fill="#000200"/>
<path d="M210.92 99.4704C210.854 99.8595 210.814 100.235 210.788 100.624C206.711 101.818 202.396 102.127 198.16 101.429C194.36 100.799 190.375 99.0947 187.921 96.2101C188 95.7271 188.053 95.271 188.119 94.8014C190.745 98.6386 196.273 100.356 200.852 100.678C204.27 100.906 207.674 100.477 210.92 99.4704Z" fill="#000200"/>
<path d="M172.034 158.128C171.968 158.128 171.915 158.115 171.849 158.101C171.572 157.994 171.44 157.699 171.532 157.417C175.623 146.067 192.051 141.559 200.707 144.175C200.984 144.255 201.142 144.551 201.063 144.832C200.984 145.114 200.694 145.275 200.417 145.195C192.13 142.699 176.415 146.979 172.522 157.793C172.443 157.994 172.245 158.128 172.034 158.128Z" fill="#000200"/>
<path d="M120.679 4.19863C118.277 1.82388 113.065 -0.470373 101.862 2.09221C101.691 2.13246 101.546 2.25321 101.493 2.42763C101.427 2.60205 101.453 2.78988 101.559 2.92405L103.802 6.05013C103.934 6.23797 104.158 6.31846 104.369 6.25138C109.133 4.80238 113.197 4.9768 115.823 6.73438C117.433 7.80772 118.409 9.47138 118.647 11.551C119.254 16.8103 109.41 18.2325 109.318 18.2459C109.054 18.2861 108.856 18.5276 108.869 18.796L109.304 27.7046C109.318 27.9864 109.555 28.2145 109.832 28.2145H111.746C111.891 28.2145 112.023 28.1608 112.128 28.0535C112.221 27.9461 112.287 27.812 112.273 27.6644L112.075 21.2915C114.055 20.8487 121.84 18.7691 123.001 12.7316C123.634 9.35063 122.816 6.31847 120.679 4.19863Z" fill="#000200"/>
<path d="M112.115 30.0793H109.489C109.238 30.0793 109.027 30.2538 108.975 30.4953L108.236 33.8494C108.209 33.997 108.236 34.1446 108.315 34.2654C108.394 34.3861 108.526 34.4666 108.671 34.4934L112.023 35.0167C112.049 35.0167 112.075 35.0167 112.102 35.0167C112.221 35.0167 112.352 34.9765 112.445 34.8825C112.564 34.7752 112.63 34.6276 112.63 34.48V30.6026C112.643 30.3208 112.405 30.0793 112.115 30.0793Z" fill="#000200"/>
</svg>
