<svg width="186" height="180" viewBox="0 0 186 180" fill="none" xmlns="http://www.w3.org/2000/svg">
<path d="M175.682 162.33L150.414 162.344V175.411L176.078 173.775L175.682 162.33Z" fill="#F674B4"/>
<path d="M106.857 104.37C107.437 102.116 111.963 96.4679 109.931 94.603C109.1 93.8383 108.282 92.1075 109.087 91.7855C109.469 91.5172 112.61 91.5306 112.927 91.6648C114.959 89.2766 118.535 81.3071 119.26 80.1533C121.279 76.9601 123.601 74.4378 127.125 73.4986L118.337 21.2675L23.2923 39.1251L43.4016 121.852L106.065 107.845C106.158 106.638 106.54 105.605 106.857 104.37Z" fill="#FFCB56"/>
<path d="M108.321 71.6068C108.321 83.8428 103.624 94.2005 86.5363 94.2005C74.5024 94.2005 64.7512 83.8428 64.7512 71.6068C64.7512 59.3709 74.5024 49.4559 86.5363 49.4559C98.5703 49.4559 108.321 59.3709 108.321 71.6068Z" fill="white"/>
<path d="M19.3601 28.2709C19.3601 29.9614 18.7135 31.3835 16.3516 31.3835C14.689 31.3835 13.3431 29.9614 13.3431 28.2709C13.3431 26.5804 14.689 25.2119 16.3516 25.2119C18.0141 25.2119 19.3601 26.5804 19.3601 28.2709Z" fill="#7BAEED"/>
<path d="M141.679 14.4116C141.52 14.4116 141.349 14.3311 141.257 14.1835C140.372 12.9224 137.575 9.70235 135.424 9.97069C135.213 9.99752 135.002 9.89019 134.896 9.68894C134.791 9.5011 134.817 9.2596 134.962 9.0986C137.034 6.62994 136.955 1.5316 136.955 1.49135C136.955 1.26327 137.087 1.04861 137.311 0.981523C137.522 0.901023 137.76 0.981521 137.892 1.15594C138.815 2.40369 141.692 5.66394 143.803 5.83836C144.001 5.85177 144.173 5.98594 144.239 6.16036C144.318 6.34819 144.278 6.56286 144.146 6.71044C144.12 6.73727 141.758 9.59502 142.18 13.8213C142.207 14.0628 142.061 14.2908 141.85 14.3713C141.798 14.3982 141.745 14.4116 141.679 14.4116ZM136.348 8.95102C138.222 9.31327 140.043 11.0709 141.111 12.3186C141.217 9.67552 142.233 7.70327 142.866 6.71044C140.979 6.10669 139.04 4.13444 137.958 2.88669C137.852 4.46986 137.496 7.04585 136.348 8.95102Z" fill="#000200"/>
<path d="M67.2581 91.3695C64.7643 93.7845 64.0254 96.8703 64.2893 98.9365C64.2893 98.9365 61.4259 94.7639 57.7445 93.8382C58.6814 92.4697 61.1488 90.4437 60.5419 83.8025C60.5287 83.8025 63.4448 91.3695 67.2581 91.3695Z" fill="white"/>
<path d="M5.7955 88.5789C4.02736 90.3901 2.24603 92.1879 0.477885 93.9992C0.0028615 94.4822 0.741787 95.2335 1.21681 94.7505C2.98495 92.9393 4.76629 91.1414 6.53443 89.3302C7.00945 88.8472 6.27053 88.0959 5.7955 88.5789Z" fill="#F674B4"/>
<path d="M19.3205 22.6762C17.7634 21.2272 16.2064 19.7782 14.6626 18.3292C14.1744 17.873 13.4222 18.6109 13.9237 19.0805C15.4807 20.5295 17.0377 21.9785 18.5815 23.4275C19.083 23.8837 19.8219 23.1324 19.3205 22.6762Z" fill="#F674B4"/>
<path d="M72.8529 96.2801L73.0245 101.606L77.5504 98.95L72.8529 96.2801Z" fill="#FF3857"/>
<path d="M89.0433 89.8266C76.7455 89.8266 66.7304 79.4556 66.7304 66.7097C66.7304 54.2054 76.7455 44.0221 89.0433 44.0221C101.341 44.0221 111.356 54.192 111.356 66.7097C111.356 82.045 103.848 89.8266 89.0433 89.8266ZM89.0433 45.0821C77.3129 45.0821 67.7729 54.7823 67.7729 66.7097C67.7729 78.8786 77.3129 88.7667 89.0433 88.7667C103.347 88.7667 110.314 81.5486 110.314 66.7097C110.301 54.7823 100.761 45.0821 89.0433 45.0821Z" fill="#000200"/>
<path d="M92.672 77.6577C92.4213 77.6577 92.2102 77.4833 92.1574 77.2284L88.0933 54.6078L81.7992 59.733C81.5749 59.9209 81.245 59.8806 81.0603 59.6525C80.8756 59.4244 80.9151 59.089 81.1395 58.9012L88.1197 53.2125C88.2648 53.0918 88.4627 53.0649 88.6343 53.132C88.8058 53.1991 88.9378 53.3467 88.9642 53.5345L93.1866 77.0271C93.2394 77.3089 93.0546 77.5906 92.7644 77.6443C92.7248 77.6577 92.6984 77.6577 92.672 77.6577Z" fill="#000200"/>
<path d="M88.4363 78.7982C88.212 78.7982 87.9877 78.6372 87.9349 78.4091C87.8557 78.1273 88.0273 77.8322 88.3044 77.7651L96.7493 75.4977C97.0264 75.4172 97.3167 75.5916 97.3826 75.8734C97.4618 76.1551 97.2903 76.4503 97.0132 76.5173L88.5683 78.7848C88.5287 78.7982 88.4891 78.7982 88.4363 78.7982Z" fill="#000200"/>
<path d="M136.81 79.0128C136.559 79.0128 136.335 78.825 136.295 78.57L129.367 37.0186C129.315 36.7235 129.513 36.4551 129.79 36.4015C130.067 36.3478 130.344 36.549 130.397 36.8308L137.324 78.3822C137.377 78.6774 137.179 78.9457 136.902 78.9994C136.862 79.0128 136.836 79.0128 136.81 79.0128Z" fill="#000200"/>
<path d="M129.42 30.9677L127.098 17.0546C127.072 16.9204 126.992 16.7862 126.887 16.7057C126.768 16.6252 126.636 16.5984 126.491 16.6252L31.4599 34.4828C31.3147 34.5097 31.196 34.5902 31.1168 34.7109C31.0376 34.8317 31.0112 34.9792 31.0508 35.1268L40.4589 73.8339C40.4589 73.8473 40.4721 73.8607 40.4721 73.8742C40.802 73.8607 41.1319 73.8473 41.4617 73.8339C41.4881 73.7534 41.4881 73.6595 41.4617 73.579L32.1856 35.422L126.161 17.7657L128.391 31.1555C128.444 31.4372 128.708 31.6385 128.998 31.5848C129.288 31.5311 129.473 31.2628 129.42 30.9677Z" fill="#000200"/>
<path d="M51.8726 119.142C51.6351 119.142 51.424 118.981 51.3712 118.74L42.6493 82.8633C42.5833 82.5816 42.7548 82.2864 43.0319 82.2194C43.309 82.1523 43.5993 82.3267 43.6653 82.6084L52.2685 117.975L106.738 104.84C107.015 104.759 107.305 104.947 107.371 105.229C107.437 105.511 107.266 105.806 106.989 105.873L52.0178 119.129C51.9518 119.142 51.9122 119.142 51.8726 119.142Z" fill="#000200"/>
<path d="M110.142 97.7692C110.023 97.6351 109.852 97.568 109.667 97.6082L57.8104 107.241L49.326 75.5915C49.2468 75.3097 48.9697 75.1487 48.6794 75.2158C48.4023 75.2963 48.2308 75.5915 48.31 75.8732L56.9132 107.993C56.9791 108.221 57.1903 108.382 57.4146 108.382C57.441 108.382 57.4806 108.382 57.5069 108.368L109.575 98.695C109.773 98.3864 109.971 98.0912 110.142 97.7692Z" fill="#000200"/>
<path d="M46.885 68.9906C46.6607 68.9906 46.4496 68.8296 46.3836 68.6015L39.1791 41.7279C39.1395 41.5803 39.1659 41.4327 39.245 41.2986C39.3242 41.1778 39.4561 41.0839 39.6013 41.0571L120.527 26.728C120.817 26.6744 121.081 26.8622 121.134 27.1574L121.569 29.5992C121.622 29.881 121.437 30.1627 121.147 30.2164C120.87 30.2701 120.593 30.0822 120.54 29.7871L120.197 27.8685L40.3402 42.0096L47.3864 68.3197C47.4656 68.6015 47.294 68.8966 47.0169 68.9771C46.9774 68.9906 46.9246 68.9906 46.885 68.9906Z" fill="#000200"/>
<path d="M129.829 78.9993C129.579 78.9993 129.368 78.8248 129.315 78.5699L121.358 34.3754C121.305 34.0937 121.49 33.8119 121.78 33.7583C122.057 33.718 122.334 33.8924 122.387 34.1876L130.344 78.3821C130.397 78.6638 130.212 78.9456 129.922 78.9993C129.882 78.9858 129.856 78.9993 129.829 78.9993Z" fill="#000200"/>
<path d="M39.6803 42.1169C39.5616 42.1169 39.456 42.0767 39.3505 41.9962L31.2223 35.422C30.998 35.2342 30.9584 34.8987 31.1431 34.6707C31.3279 34.4426 31.6445 34.4023 31.882 34.5902L40.0102 41.1643C40.2345 41.3522 40.2741 41.6876 40.0894 41.9156C39.9838 42.0498 39.8387 42.1169 39.6803 42.1169Z" fill="#000200"/>
<path d="M120.606 27.7744C120.514 27.7744 120.421 27.7475 120.342 27.6939C120.091 27.5463 120.012 27.2109 120.171 26.9694L126.161 16.8666C126.306 16.6117 126.623 16.5312 126.874 16.6788C127.124 16.8264 127.204 17.1618 127.045 17.4033L121.055 27.5061C120.949 27.6939 120.778 27.7744 120.606 27.7744Z" fill="#000200"/>
<path d="M51.6616 118.257C51.5692 118.257 51.4768 118.23 51.3977 118.176C51.147 118.028 51.0678 117.706 51.2129 117.452L56.9924 107.577C57.1375 107.322 57.4542 107.241 57.7049 107.389C57.9556 107.537 58.0348 107.859 57.8896 108.114L52.1102 117.988C52.0178 118.163 51.8331 118.257 51.6616 118.257Z" fill="#000200"/>
<path d="M76.1253 49.3888C76.0065 49.3888 75.8746 49.3485 75.7822 49.2546L63.0754 37.77C62.8642 37.5687 62.8378 37.2333 63.0358 37.0186C63.2337 36.8039 63.5504 36.7771 63.7747 36.9784L76.4816 48.463C76.6927 48.6643 76.7191 48.9997 76.5211 49.2144C76.4156 49.3351 76.2704 49.3888 76.1253 49.3888Z" fill="#000200"/>
<path d="M71.1111 54.6481C71.0055 54.6481 70.8999 54.6079 70.7944 54.5408L51.3448 39.8898C51.1073 39.7154 51.0677 39.38 51.2392 39.1519C51.4108 38.9238 51.7406 38.8701 51.965 39.0446L71.4145 53.6956C71.652 53.87 71.6916 54.2054 71.5201 54.4335C71.4277 54.5676 71.2694 54.6481 71.1111 54.6481Z" fill="#000200"/>
<path d="M94.2422 45.7126C94.1895 45.7126 94.1499 45.6991 94.0971 45.6857C93.82 45.6052 93.6617 45.3101 93.7408 45.0283L97.8181 31.0347C97.8973 30.7529 98.1876 30.5919 98.4647 30.6724C98.7418 30.7529 98.9001 31.0481 98.821 31.3299L94.7437 45.3235C94.6645 45.565 94.4666 45.7126 94.2422 45.7126Z" fill="#000200"/>
<path d="M101.961 49.3886C101.909 49.3886 101.843 49.3752 101.79 49.3618C101.513 49.2679 101.381 48.9593 101.473 48.691L108.189 29.1966C108.282 28.9148 108.585 28.7672 108.849 28.8746C109.126 28.9685 109.258 29.2771 109.166 29.5454L102.45 49.0398C102.37 49.2545 102.173 49.3886 101.961 49.3886Z" fill="#000200"/>
<path d="M67.2449 28.821C67.1262 28.821 66.9942 28.7807 66.9018 28.6868C66.6907 28.4856 66.6775 28.1502 66.8623 27.9355L78.2232 15.1226C78.3684 14.9616 78.6059 14.9079 78.8038 14.9884L96.4721 22.3407C96.736 22.4481 96.8679 22.7567 96.7624 23.0384C96.6568 23.3067 96.3401 23.4409 96.0762 23.3336L78.7511 16.1154L67.6408 28.6466C67.5352 28.7673 67.3901 28.821 67.2449 28.821Z" fill="#000200"/>
<path d="M115.856 101.472C115.183 101.982 114.153 102.492 113.415 101.834C112.887 101.365 112.108 102.156 112.636 102.626C113.771 103.632 115.288 103.27 116.41 102.438C116.977 102.022 116.423 101.056 115.856 101.472Z" fill="#000200"/>
<path d="M119.115 89.3166L118.6 90.3094C117.94 91.584 115.988 90.5375 116.647 89.2629L117.162 88.27C117.822 86.9955 119.775 88.042 119.115 89.3166Z" fill="#000200"/>
<path d="M120.276 82.5011C120.764 82.9706 121.173 83.5475 121.688 83.9769C122.229 84.433 121.635 85.3722 121.094 84.9161C120.5 84.4196 120.025 83.8025 119.458 83.2524C118.956 82.756 119.761 82.0046 120.276 82.5011Z" fill="#000200"/>
<path d="M173.835 117.72C170.655 111.816 163.82 109.079 157.486 110.421C156.483 108.046 154.451 106.544 152.116 105.886C155.283 100.09 157.13 92.3353 148.58 83.0644C146.719 80.5018 143.737 78.1405 139.633 75.9402C129.908 70.7211 123.126 71.9957 118.904 79.8444C117.901 81.6959 117.017 83.3328 116.186 84.8488C114.945 87.1163 113.863 89.1019 112.742 91.2352C111.765 90.9132 109.562 90.3631 108.598 91.6377C108.202 92.1609 108.071 92.7781 108.202 93.4087C108.4 94.3076 109.139 95.2065 110.221 95.8908C106.025 104.209 104.31 109.616 107.081 114.084C108.691 116.673 111.778 118.525 114.378 119.705L116.357 125.515C116.436 125.729 116.634 125.864 116.845 125.864C116.898 125.864 116.964 125.85 117.017 125.837C117.294 125.743 117.426 125.434 117.333 125.153L117.096 124.468C119.339 123.449 119.366 120.899 119.366 120.779C119.366 120.537 119.207 120.323 118.983 120.269C118.904 120.242 110.762 118.028 107.965 113.507C105.695 109.844 106.553 105.403 111.383 95.9176C111.383 95.9042 111.396 95.8908 111.396 95.8773C111.409 95.8505 111.409 95.8371 111.422 95.8103C111.422 95.7968 111.422 95.7834 111.422 95.77C111.422 95.7432 111.435 95.7298 111.435 95.7029C111.435 95.6895 111.435 95.6761 111.435 95.6627C111.435 95.6358 111.435 95.6224 111.435 95.5956C111.435 95.5822 111.435 95.5688 111.422 95.5554C111.422 95.5285 111.409 95.5151 111.409 95.4883C111.409 95.4748 111.396 95.4614 111.396 95.448C111.383 95.4346 111.383 95.4078 111.369 95.3943C111.356 95.3809 111.356 95.3675 111.343 95.3541C111.33 95.3407 111.317 95.3273 111.317 95.3004C111.303 95.287 111.29 95.2736 111.29 95.2736C111.277 95.2602 111.264 95.2468 111.251 95.2333C111.237 95.2199 111.224 95.2199 111.211 95.2065C111.198 95.1931 111.185 95.1797 111.158 95.1797C110.129 94.6296 109.377 93.8246 109.219 93.1404C109.153 92.8183 109.219 92.5232 109.416 92.2414C109.957 91.5169 111.924 91.9999 112.781 92.3488C112.781 92.3488 112.794 92.3488 112.808 92.3488C112.834 92.3622 112.847 92.3622 112.874 92.3622C112.887 92.3622 112.9 92.3622 112.913 92.3622C112.94 92.3622 112.966 92.3622 112.979 92.3622C112.992 92.3622 113.006 92.3622 113.006 92.3622C113.032 92.3622 113.058 92.3622 113.071 92.3488C113.085 92.3488 113.098 92.3488 113.098 92.3488C113.124 92.3488 113.137 92.3353 113.164 92.3219C113.177 92.3219 113.19 92.3085 113.19 92.3085C113.203 92.2951 113.23 92.2951 113.243 92.2817C113.256 92.2683 113.269 92.2683 113.269 92.2548C113.283 92.2414 113.296 92.228 113.322 92.2146C113.335 92.2012 113.349 92.2012 113.349 92.1878C113.362 92.1743 113.375 92.1609 113.388 92.1475C113.401 92.1341 113.401 92.1207 113.415 92.1073C113.415 92.0939 113.428 92.0938 113.428 92.0804C114.615 89.7996 115.763 87.72 117.07 85.305C117.901 83.7755 118.798 82.1521 119.788 80.3006C121.45 77.2282 123.548 75.2559 126.108 74.3704C123.232 84.5268 130.542 95.6761 130.806 95.7969C133.775 97.1922 135.609 98.7485 136.123 100.305C136.374 101.056 136.321 101.794 135.952 102.505C135.727 102.935 135.186 103.713 134.078 104.035C132.851 104.397 131.333 104.062 129.671 103.096C129.499 102.988 129.051 102.747 128.642 103.324C124.749 108.811 128.774 115.211 134.342 117.076C131.465 119.37 129.17 122.469 129.13 126.28C129.09 130.264 131.558 134.048 135.437 134.826C134.487 142.125 143.038 144.07 148.593 143.815C156.365 143.453 164.862 142.178 170.721 136.476C175.775 131.646 177.239 124.026 173.835 117.72Z" fill="#000200"/>
<path d="M96.2743 179.128C96.05 179.128 95.8521 178.98 95.7729 178.752L91.0754 163.779C90.9831 163.497 91.1414 163.202 91.4185 163.108C91.6956 163.028 91.9859 163.175 92.0783 163.457L96.7757 178.43C96.8681 178.712 96.7098 179.007 96.4327 179.101C96.3799 179.114 96.3271 179.128 96.2743 179.128Z" fill="#000200"/>
<path d="M106.962 179.128C106.738 179.128 106.54 178.98 106.461 178.752L101.447 162.478C101.354 162.196 101.513 161.901 101.79 161.807C102.067 161.713 102.357 161.874 102.45 162.156L107.464 178.43C107.556 178.712 107.398 179.007 107.121 179.101C107.068 179.128 107.015 179.128 106.962 179.128Z" fill="#000200"/>
<path d="M168.003 170.997C167.778 170.997 167.567 170.836 167.501 170.608L159.532 140.998C159.452 140.716 159.624 140.421 159.901 140.34C160.178 140.273 160.468 140.434 160.548 140.716L168.517 170.326C168.597 170.608 168.425 170.903 168.148 170.984C168.095 170.984 168.056 170.997 168.003 170.997Z" fill="#000200"/>
<path d="M62.8379 135.148C57.3091 135.148 51.9387 134.356 47.835 132.263C44.2328 130.425 41.8313 127.742 40.7097 124.28C35.999 109.817 38.5589 87.076 41.9104 83.3328C42.3723 82.8095 42.8473 82.2997 43.3223 81.8033C45.9217 79.0126 48.376 76.383 50.0518 71.0834C50.9095 68.3598 50.5664 66.8571 49.8803 66.6022C49.2865 66.3876 48.2969 67.0315 47.7823 68.3464C47.5843 68.8562 47.4128 69.3124 47.2545 69.7417C46.2516 72.4116 45.7898 73.6325 43.2299 73.9143C42.9001 73.9545 40.4194 74.451 39.6805 73.807C38.6908 72.9349 38.3742 70.6675 38.5985 66.0119C38.6117 65.7167 38.8624 65.4886 39.1395 65.5021C39.4298 65.5155 39.6541 65.7704 39.6409 66.0521C39.443 70.1174 39.6805 72.3982 40.3666 72.9886C40.6965 73.2837 42.7549 72.8946 43.1244 72.8544C45.0509 72.6397 45.3148 71.9421 46.2912 69.3661C46.4496 68.9367 46.6211 68.4806 46.8322 67.9573C47.5447 66.1595 49.0094 65.1532 50.2497 65.6094C50.8039 65.8106 52.5061 66.8303 51.0678 71.4188C49.3129 76.9465 46.6607 79.7908 44.1008 82.5546C43.639 83.0511 43.164 83.5475 42.7021 84.0707C39.918 87.1834 36.9623 109.348 41.7257 123.958C42.7681 127.138 44.9849 129.62 48.3364 131.324C58.2855 136.396 75.9406 133.565 84.7153 130.586C90.3892 128.668 99.032 127.527 108.176 126.333C117.835 125.059 127.837 123.757 134.302 121.423C134.58 121.329 134.87 121.476 134.962 121.745C135.055 122.026 134.923 122.322 134.646 122.429C128.074 124.79 118.02 126.105 108.308 127.393C99.2167 128.587 90.6267 129.714 85.0452 131.606C79.6616 133.39 71.0716 135.148 62.8379 135.148Z" fill="#000200"/>
<path d="M101.671 127.675C101.249 127.729 100.827 127.755 100.404 127.755C100.417 127.769 100.417 127.782 100.431 127.796C106.474 135.242 109.311 143.211 108.401 150.228C107.78 154.991 105.432 159.11 101.763 161.807C53.3902 168.529 37.3713 162.129 23.2658 147.089C9.12061 132.022 12.5777 98.1583 23.015 73.9412C24.3609 70.8152 27.0659 69.2991 27.0923 69.2857C27.343 69.1515 27.9896 68.3331 27.8576 68.0782C27.7257 67.8232 26.8548 68.2123 26.6041 68.3465C26.4854 68.4136 23.556 70.037 22.065 73.5119C11.4957 98.0376 8.065 132.424 22.5136 147.813C33.0433 159.016 44.5626 165.523 69.1979 165.523C78.1969 165.523 88.9509 164.651 102.04 162.827C102.12 162.813 102.199 162.786 102.278 162.733C106.25 159.862 108.796 155.461 109.456 150.349C110.353 143.238 107.596 135.202 101.671 127.675Z" fill="#000200"/>
<path d="M84.1875 164.879C84.1348 164.879 84.082 164.866 84.0292 164.852C83.7521 164.759 83.607 164.463 83.6861 164.182C86.7738 154.387 84.5702 140.407 78.7644 132.988C78.5796 132.76 78.6192 132.424 78.8435 132.237C79.0678 132.049 79.3977 132.089 79.5825 132.317C85.6786 140.112 87.9218 154.24 84.689 164.49C84.6098 164.732 84.3987 164.879 84.1875 164.879Z" fill="#000200"/>
<path d="M79.1734 165.241C79.1338 165.241 79.081 165.241 79.0415 165.228C78.7644 165.148 78.5928 164.866 78.672 164.584C80.8492 156.239 80.5721 143.037 74.7663 133.766C74.6079 133.524 74.6871 133.189 74.9246 133.028C75.1753 132.867 75.492 132.948 75.6503 133.189C81.6145 142.715 81.918 156.279 79.6748 164.839C79.6088 165.094 79.3977 165.241 79.1734 165.241Z" fill="#000200"/>
<path d="M34.2309 76.5306C33.967 76.5306 33.7295 76.3159 33.7163 76.0342C33.6899 75.6183 32.9906 65.8509 36.3949 59.4914C36.5269 59.2365 37.1207 58.1632 37.3714 58.2974C37.6221 58.4449 37.4505 59.7329 37.3054 60.0013C34.0462 66.079 34.7455 75.8463 34.7455 75.9537C34.7719 76.2488 34.5476 76.5038 34.2705 76.5172C34.2573 76.5306 34.2441 76.5306 34.2309 76.5306Z" fill="#000200"/>
<path d="M28.7681 77.6576C28.7549 77.6576 28.7549 77.6576 28.7417 77.6576C28.4514 77.6442 28.2271 77.3893 28.2403 77.1076C28.7681 65.9583 31.2619 63.5165 35.2996 60.4843C35.524 60.3099 36.6455 59.7464 36.8171 59.9745C36.9886 60.216 36.1573 61.1551 35.9198 61.3295C32.0141 64.2678 29.7841 66.4547 29.2827 77.1612C29.2695 77.443 29.0452 77.6576 28.7681 77.6576Z" fill="#000200"/>
<path d="M24.6116 78.7979C24.5984 78.7979 24.5984 78.7979 24.5852 78.7979C24.295 78.7845 24.0706 78.5296 24.097 78.2344C24.4665 71.298 26.3006 67.689 30.8529 64.9251C31.1036 64.7775 31.4203 64.858 31.5654 65.113C31.7106 65.3679 31.6314 65.6899 31.3807 65.8375C27.1187 68.4135 25.4825 71.6871 25.1394 78.3015C25.1131 78.5833 24.8887 78.7979 24.6116 78.7979Z" fill="#000200"/>
<path d="M139.303 43.6462C135.318 43.6462 133.709 41.7008 132.138 39.809C131.241 38.7223 130.304 37.6087 128.892 36.7903C127.335 35.9048 125.079 35.4486 122.889 35.0059C119.418 34.3082 116.146 33.6508 116.001 31.2224C115.948 30.4174 115.974 29.6124 116.515 29.1294C117.307 28.4183 118.679 28.6866 122.031 29.3306C123.918 29.6929 126.517 30.1893 129.908 30.6723C130.199 30.7125 130.397 30.9809 130.357 31.276C130.318 31.5712 130.054 31.759 129.763 31.7322C126.346 31.2492 123.746 30.7528 121.846 30.3905C119.3 29.9075 117.624 29.5855 117.215 29.9478C117.056 30.0954 117.004 30.4979 117.043 31.1821C117.149 32.8055 120.039 33.3825 123.1 33.9996C125.369 34.4558 127.718 34.9254 129.42 35.9048C131.004 36.8037 131.993 37.9978 132.957 39.165C134.514 41.0434 135.873 42.6668 139.475 42.6131C139.475 42.6131 139.475 42.6131 139.488 42.6131C139.778 42.6131 140.003 42.8412 140.016 43.1364C140.016 43.4315 139.792 43.673 139.501 43.673C139.422 43.6462 139.356 43.6462 139.303 43.6462Z" fill="#000200"/>
<path d="M171.394 123.059C171.275 123.059 171.143 123.019 171.051 122.925C170.84 122.724 170.813 122.402 171.011 122.174C186.172 104.799 187.07 72.7604 182.504 61.1013C173.967 39.2858 150.084 30.0954 127.85 23.9908C127.573 23.9103 127.401 23.6285 127.481 23.3334C127.56 23.0516 127.85 22.8772 128.114 22.9577C150.598 29.1428 174.759 38.4674 183.467 60.7122C188.112 72.586 187.202 105.202 171.79 122.885C171.684 122.992 171.539 123.059 171.394 123.059Z" fill="#000200"/>
<path d="M152.419 103.78C152.301 103.78 152.169 103.739 152.076 103.646C151.865 103.458 151.839 103.122 152.023 102.894C158.159 95.7968 161.458 81.4544 159.518 70.2381C157.671 59.5584 147.946 51.6157 131.4 47.2821C131.122 47.2151 130.951 46.9199 131.03 46.6381C131.109 46.3564 131.386 46.182 131.663 46.2625C148.645 50.7034 158.634 58.9278 160.547 70.0636C162.527 81.5617 159.136 96.2932 152.802 103.592C152.71 103.726 152.564 103.78 152.419 103.78Z" fill="#000200"/>
<path d="M178.506 111.964C178.493 111.964 178.48 111.964 178.466 111.964C178.176 111.937 177.965 111.682 177.991 111.387C178.374 106.799 171.064 98.7888 156.853 96.3336C156.562 96.2799 156.378 96.0116 156.431 95.7164C156.483 95.4212 156.747 95.2334 157.037 95.2871C172.04 97.8899 179.456 106.356 179.034 111.481C179.007 111.749 178.783 111.964 178.506 111.964Z" fill="#000200"/>
<path d="M176.197 115.761C175.946 115.761 175.735 115.586 175.682 115.331C174.521 109.173 167.567 104.155 155.019 100.426C154.742 100.345 154.583 100.05 154.662 99.7681C154.742 99.4864 155.032 99.3254 155.309 99.4059C168.267 103.256 175.458 108.543 176.711 115.13C176.764 115.412 176.58 115.694 176.302 115.747C176.263 115.761 176.223 115.761 176.197 115.761Z" fill="#000200"/>
</svg>
