<svg width="218" height="162" viewBox="0 0 218 162" fill="none" xmlns="http://www.w3.org/2000/svg">
<path d="M168.284 29.4402L137.75 41.5944C140.97 51.5579 147.62 60.2149 157.305 65.2165C162.174 67.7371 167.492 69.0699 172.81 69.2283L168.284 29.4402Z" fill="#F6C8E2"/>
<path d="M1.18097 78.6772L4.79643 76.5129L8.05562 80.8546L4.6117 83.0189L1.18097 78.6772Z" fill="#FFCB56"/>
<path d="M44.8171 135.397L63.1451 78.1098L79.8237 75.6948L87.2658 135.991L78.9001 135.819L76.7361 111.656L57.6956 111.827L51.771 135.991L44.8171 135.397Z" fill="#FFCB56"/>
<path d="M126.97 97.2582L128.646 101.376C128.646 101.376 138.146 98.6834 140.442 101.507C142.395 103.922 142.725 108.079 142.725 108.079C142.725 108.079 131.417 109.082 130.942 119.785C130.467 130.487 138.977 122.86 145.153 120.247L146.156 122.398L152.107 120.973C152.107 120.973 149.494 110.508 147.818 102.893C146.156 95.2786 138.397 92.0191 126.97 97.2582Z" fill="#A0DDE2"/>
<path d="M189.053 37.2264C187.285 34.8246 185.503 32.4096 183.735 30.0078C183.339 29.4667 182.416 29.9946 182.825 30.5489C184.593 32.9507 186.374 35.3656 188.142 37.7675C188.538 38.3085 189.462 37.7807 189.053 37.2264Z" fill="#FF3857"/>
<path d="M189.185 30.5752L182.31 35.8407C181.782 36.2498 182.297 37.1736 182.851 36.7513C185.147 34.9961 187.43 33.241 189.726 31.4858C190.254 31.0767 189.726 30.1529 189.185 30.5752Z" fill="#FF3857"/>
<path d="M164.497 0.565852L159.786 8.19355C159.43 8.77421 160.34 9.30208 160.696 8.73462C162.267 6.18765 163.837 3.65388 165.407 1.10691C165.777 0.513062 164.853 -0.0148037 164.497 0.565852Z" fill="#F6C8E2"/>
<path d="M15.3393 45.4216C15.3261 45.4216 15.2997 45.4216 15.2866 45.4216C15.1414 45.4084 15.0095 45.3292 14.9171 45.2236L3.93877 31.0899C3.8464 30.9844 3.82001 30.8392 3.8332 30.694C3.8464 30.5489 3.92557 30.4301 4.03113 30.3377L29.1282 10.8198C29.2338 10.7274 29.3789 10.6878 29.5241 10.7142C29.6692 10.7274 29.788 10.8066 29.8803 10.9122L40.0669 24.0165C40.2385 24.2408 40.2121 24.5576 39.9878 24.7423L15.6824 45.2896C15.59 45.3688 15.4581 45.4216 15.3393 45.4216ZM5.09993 30.8524L15.4185 44.1283L38.9058 24.2672L29.3525 11.9811L5.09993 30.8524Z" fill="#000200"/>
<path d="M44.3949 9.51326C44.2893 9.38129 44.1046 9.31531 43.9331 9.31531L29.3921 10.7142C29.1941 10.7274 29.0358 10.8593 28.9566 11.0309C28.8775 11.2024 28.9039 11.4136 29.0226 11.5719L39.2092 24.6763C39.3148 24.8083 39.4599 24.8874 39.6315 24.8874C39.6579 24.8874 39.6974 24.8874 39.7238 24.8742C39.9218 24.8347 40.0801 24.7027 40.1329 24.5047L44.5005 10.0147C44.5533 9.82998 44.5137 9.65842 44.3949 9.51326ZM39.4204 23.2115L30.4477 11.6775L36.7154 11.0837L41.2941 16.9694L39.4204 23.2115Z" fill="#000200"/>
<path d="M13.0434 42.4655C12.8983 42.4655 12.7531 42.3996 12.6476 42.2808C12.4496 42.0564 12.476 41.7265 12.7003 41.5286L36.0425 21.2056C36.2668 21.0077 36.5967 21.0341 36.7946 21.2584C36.9925 21.4828 36.9661 21.8127 36.7418 22.0106L13.3997 42.3336C13.2941 42.4259 13.1622 42.4655 13.0434 42.4655Z" fill="#000200"/>
<path d="M8.0556 36.0518C7.89726 36.0518 7.73892 35.9858 7.63336 35.8407C7.44863 35.6163 7.5014 35.2732 7.72572 35.1017L32.8228 15.5837C33.0603 15.3989 33.3902 15.4517 33.5617 15.6761C33.7465 15.9004 33.6937 16.2435 33.4694 16.4151L8.37228 35.933C8.27992 36.0122 8.16116 36.0518 8.0556 36.0518Z" fill="#000200"/>
<path d="M10.919 47.0051C10.6419 47.0051 10.3648 46.992 10.0877 46.9656C8.05564 46.7412 6.24791 45.7515 4.98119 44.1415L2.57968 41.1062C1.32614 39.5226 0.758754 37.5299 1.00946 35.524C1.24697 33.5049 2.263 31.7101 3.8728 30.4697L4.03114 30.3509C4.26865 30.1661 4.59853 30.2057 4.77006 30.4433C4.95479 30.6676 4.90202 31.0107 4.6777 31.1823L4.51936 31.301C3.14707 32.37 2.27619 33.914 2.06507 35.6428C1.85395 37.3715 2.34217 39.0739 3.42417 40.4464L5.82567 43.4816C6.90767 44.8541 8.46469 45.7119 10.2064 45.9098C11.9482 46.0946 13.6504 45.5931 15.0095 44.4846C15.2338 44.2998 15.5637 44.3262 15.7616 44.5638C15.9463 44.7881 15.9067 45.118 15.6824 45.3028C14.3101 46.4113 12.6475 47.0051 10.919 47.0051Z" fill="#000200"/>
<path d="M108.998 161.249C108.972 161.249 108.959 161.249 108.932 161.249L37.3883 152.315C37.1376 152.289 36.9397 152.077 36.9265 151.827L34.3139 119.495C34.2875 119.204 34.5118 118.954 34.8021 118.927C35.0924 118.901 35.1187 117.476 35.1451 117.766L37.9557 151.312L108.444 160.114L103.733 61.0861L29.8407 51.1754L33.3638 94.6586C33.3902 94.9489 33.1659 95.1996 32.8756 95.226C32.5853 95.2392 32.3346 95.0281 32.3082 94.7378L28.7323 50.5947C28.7191 50.4364 28.7851 50.278 28.8907 50.1724C29.0094 50.0668 29.1678 50.0141 29.3261 50.0273L104.301 60.0832C104.551 60.1228 104.749 60.3339 104.762 60.5846L109.526 160.682C109.539 160.84 109.473 160.985 109.354 161.091C109.262 161.196 109.13 161.249 108.998 161.249Z" fill="#000200"/>
<path d="M108.998 161.249C108.747 161.249 108.523 161.064 108.484 160.814C108.431 160.537 108.602 160.273 108.879 160.207L178.629 143.196L171.266 78.4397C171.226 78.1494 171.437 77.8854 171.728 77.859C172.031 77.8327 172.282 78.0306 172.308 78.3209L179.724 143.539C179.75 143.803 179.579 144.054 179.328 144.12L172.48 145.796L172.638 153.767C172.638 154.044 172.44 154.268 172.163 154.308L109.064 161.262C109.038 161.249 109.025 161.249 108.998 161.249ZM171.424 146.033L117.074 159.296L171.582 153.292L171.424 146.033Z" fill="#000200"/>
<path d="M54.9378 134.077C54.9246 134.077 54.9114 134.077 54.8982 134.077L47.9444 133.483C47.786 133.47 47.6409 133.378 47.5485 133.246C47.4561 133.114 47.4297 132.942 47.4825 132.784L65.8237 75.4968C65.8897 75.2988 66.048 75.1669 66.246 75.1273L82.9246 72.7123C83.0697 72.6991 83.2149 72.7255 83.3204 72.8179C83.4392 72.9102 83.5052 73.029 83.5184 73.1742L90.9736 133.47C90.9868 133.628 90.9472 133.774 90.8416 133.892C90.7361 134.011 90.5909 134.064 90.4326 134.064L82.0537 133.892C81.7898 133.892 81.5655 133.681 81.5391 133.404L79.4279 109.729L61.2846 109.887L55.4524 133.655C55.3864 133.919 55.1753 134.077 54.9378 134.077ZM82.5551 132.863L89.8388 133.008L82.5287 73.8472L66.721 76.1434L48.6833 132.48L54.5287 132.982L60.361 109.254C60.4137 109.016 60.6249 108.858 60.8756 108.845L79.9161 108.673C80.1932 108.673 80.4175 108.884 80.4439 109.162L82.5551 132.863Z" fill="#000200"/>
<path d="M136.945 123.427C136.338 123.427 135.784 123.295 135.296 122.992C134.003 122.2 133.449 120.339 133.581 117.33C134.016 107.657 143.002 105.572 145.311 105.189C145.153 104.041 144.651 101.178 143.213 99.4093C141.511 97.311 134.517 98.7231 131.971 99.4489C131.707 99.5281 131.43 99.3829 131.337 99.1322L129.662 95.0148C129.556 94.7509 129.675 94.4473 129.926 94.3286C136.259 91.4253 141.973 90.937 146.037 92.9561C148.874 94.3814 150.774 96.9283 151.526 100.333C153.175 107.855 155.775 118.294 155.801 118.399C155.841 118.531 155.814 118.677 155.735 118.808C155.656 118.927 155.537 119.02 155.405 119.046L149.454 120.471C149.204 120.524 148.953 120.405 148.847 120.181L148.056 118.492C146.855 119.033 145.562 119.759 144.308 120.445C141.577 121.976 138.964 123.427 136.945 123.427ZM139.294 97.2318C141.273 97.2318 143.107 97.6014 144.031 98.7363C146.063 101.244 146.406 105.427 146.419 105.599C146.446 105.889 146.222 106.14 145.944 106.166C145.496 106.206 135.098 107.261 134.649 117.37C134.531 119.93 134.94 121.514 135.863 122.094C137.434 123.071 140.68 121.276 143.82 119.534C145.258 118.729 146.763 117.911 148.135 117.317C148.399 117.212 148.702 117.317 148.821 117.581L149.652 119.35L154.666 118.149C154.112 115.945 151.948 107.143 150.51 100.571C149.837 97.4958 148.135 95.1864 145.588 93.9195C141.933 92.0983 136.708 92.5074 130.862 95.094L132.169 98.3008C133.369 97.9709 136.484 97.2318 139.294 97.2318Z" fill="#000200"/>
<path d="M119.079 134.077C118.974 134.077 118.868 134.051 118.776 133.985C118.644 133.892 118.565 133.76 118.551 133.602L113.88 92.2303C113.854 91.9795 113.999 91.742 114.25 91.6628L123.605 88.6803C123.882 88.588 124.186 88.7463 124.265 89.0235C124.357 89.3006 124.199 89.6041 123.922 89.6833L114.989 92.5338L119.541 132.863L128.659 130.356C128.936 130.276 129.226 130.448 129.305 130.725C129.385 131.002 129.213 131.293 128.936 131.372L119.224 134.051C119.172 134.077 119.119 134.077 119.079 134.077Z" fill="#A0DDE2"/>
<path d="M163.336 119.957C163.085 119.957 162.874 119.785 162.821 119.534C162.755 119.244 162.94 118.967 163.23 118.901L168.798 117.7L165.407 89.2479C165.368 88.9576 165.579 88.6937 165.869 88.6541C166.159 88.6145 166.423 88.8256 166.463 89.116L169.92 118.056C169.946 118.334 169.775 118.584 169.511 118.637L163.468 119.93C163.415 119.957 163.375 119.957 163.336 119.957Z" fill="#A0DDE2"/>
<path d="M126.627 140.042C126.389 140.042 126.178 139.884 126.112 139.646C126.046 139.369 126.205 139.079 126.495 138.999L166.225 128.851C166.516 128.772 166.793 128.944 166.872 129.234C166.938 129.511 166.779 129.801 166.489 129.881L126.759 140.029C126.719 140.029 126.68 140.042 126.627 140.042Z" fill="#F6C8E2"/>
<path d="M93.0848 152.354C92.9133 152.354 92.7417 152.275 92.6494 152.117C92.491 151.879 92.557 151.549 92.7945 151.378L99.6692 146.772L92.7153 139.884C92.5042 139.672 92.5042 139.343 92.7153 139.131C92.9265 138.92 93.2563 138.92 93.4675 139.131L100.883 146.469C101.002 146.574 101.055 146.733 101.041 146.891C101.028 147.049 100.936 147.195 100.804 147.274L93.3883 152.236C93.2959 152.315 93.1904 152.354 93.0848 152.354Z" fill="#A0DDE2"/>
<path d="M102.242 60.2679C102.229 60.0039 102.044 59.7928 101.78 59.7532L91.6598 58.3939C91.5014 58.3675 91.3431 58.4203 91.2375 58.5259C91.1188 58.6315 91.0528 58.7898 91.066 58.935L92.557 93.748C92.5702 93.9591 92.7022 94.1439 92.9001 94.2231C92.9661 94.2495 93.0189 94.2626 93.0848 94.2626C93.23 94.2626 93.3751 94.2099 93.4675 94.0911L99.2865 87.8886L102.216 92.4547C102.348 92.6526 102.585 92.745 102.823 92.679C103.047 92.613 103.205 92.4019 103.192 92.1512L102.242 60.2679Z" fill="#000200"/>
<path d="M139.426 118.65C138.898 118.65 138.423 118.531 138.054 118.241C137.513 117.819 137.275 117.251 137.341 116.591C137.592 114.242 142.012 111.128 146.274 109.082C146.419 109.016 146.578 109.016 146.723 109.082C146.868 109.148 146.974 109.28 147.013 109.426L148.148 113.715C148.201 113.912 148.135 114.137 147.963 114.269C146.921 115.1 142.276 118.65 139.426 118.65ZM146.169 110.323C141.867 112.474 138.568 115.166 138.41 116.71C138.384 117 138.476 117.212 138.727 117.41C139.941 118.347 144.229 115.852 147.053 113.662L146.169 110.323Z" fill="#000200"/>
<path d="M62.2479 105.638C62.0895 105.638 61.9312 105.572 61.8388 105.44C61.7333 105.308 61.6937 105.137 61.7333 104.978L67.935 80.2477C67.9877 80.0365 68.1593 79.8913 68.3704 79.8518L78.3063 78.2945C78.4515 78.2681 78.6098 78.3077 78.7285 78.4133C78.8473 78.5057 78.9133 78.6508 78.9265 78.8092L79.7842 104.609C79.7842 104.754 79.7314 104.886 79.639 104.991C79.5466 105.097 79.4147 105.15 79.2695 105.163L62.2743 105.638C62.2611 105.638 62.2479 105.638 62.2479 105.638ZM68.885 80.8415L62.934 104.556L78.7022 104.107L77.8841 79.4295L68.885 80.8415Z" fill="#000200"/>
<path d="M104.248 61.152C104.037 61.152 103.839 61.02 103.76 60.8221C103.654 60.545 103.786 60.2414 104.05 60.1359L166.74 35.1941C166.898 35.1281 167.07 35.1413 167.202 35.2337C167.347 35.3128 167.439 35.458 167.452 35.6296L169.405 52.7721C169.445 53.0624 169.234 53.3264 168.943 53.3528C168.653 53.3792 168.389 53.1812 168.363 52.8909L166.489 36.4346L104.446 61.1256C104.38 61.1388 104.314 61.152 104.248 61.152Z" fill="#000200"/>
<path d="M53.869 82.4647C53.7766 82.4647 53.6842 82.4383 53.6051 82.3987L39.9086 74.5335C39.737 74.4279 39.6315 74.2431 39.6447 74.0452C39.6579 73.8472 39.7766 73.6625 39.9613 73.5833L53.6579 67.7503C53.9218 67.6316 54.2384 67.7635 54.3572 68.0275C54.476 68.2914 54.344 68.6081 54.0801 68.7269L41.36 74.1376L54.1329 81.4749C54.3836 81.6201 54.476 81.95 54.3308 82.2008C54.2252 82.3723 54.0537 82.4647 53.869 82.4647Z" fill="#A0DDE2"/>
<path d="M104.828 57.4042C104.538 57.4042 104.301 57.1667 104.301 56.8764C104.301 56.586 104.538 56.3485 104.828 56.3485C106.306 56.3485 107.494 55.9526 108.075 55.2664C108.418 54.8705 108.536 54.369 108.431 53.7751C108.193 52.3631 105.198 51.7296 104.169 51.6241C103.905 51.5977 103.694 51.3733 103.694 51.0962V44.2471C103.694 43.9568 103.931 43.7192 104.222 43.7192C104.512 43.7192 104.749 43.9568 104.749 44.2471V50.6211C106.003 50.8191 109.117 51.5185 109.46 53.5904C109.605 54.4878 109.407 55.306 108.866 55.9394C108.101 56.8764 106.623 57.4042 104.828 57.4042Z" fill="#000200"/>
<path d="M110.093 42.7823V44.2868C110.093 46.2135 113.089 46.2135 113.089 44.2868V42.7955C113.089 40.8688 110.093 40.8556 110.093 42.7823Z" fill="#000200"/>
<path d="M90.0895 42.7823V44.2868C90.0895 46.2135 93.0848 46.2135 93.0848 44.2868V42.7955C93.0848 40.8688 90.0895 40.8556 90.0895 42.7823Z" fill="#000200"/>
<path d="M91.7126 35.8407C90.4986 36.0254 89.3111 36.2762 88.1631 36.6985C87.2658 37.0284 87.9388 38.3612 88.836 38.0313C89.8652 37.6618 90.9472 37.4639 92.0292 37.3055C92.9793 37.1603 92.6626 35.6955 91.7126 35.8407Z" fill="#000200"/>
<path d="M113.735 36.1442C112.825 36.0255 111.888 36.0651 110.991 35.8803C110.054 35.6823 109.579 37.0944 110.516 37.2924C111.545 37.5035 112.587 37.4903 113.63 37.6355C114.593 37.7675 114.685 36.263 113.735 36.1442Z" fill="#000200"/>
<path d="M139.254 40.486C136.998 36.3159 132.565 33.8745 127.92 34.4023C127.867 29.2028 126.97 22.7892 120.913 19.7144C120.095 18.3683 119.106 17.1542 117.958 16.0721C114.474 11.4928 108.167 9.24939 98.9039 9.24939C89.2978 9.24939 82.6475 11.3477 78.7418 15.729C71.8671 16.7847 66.6682 22.0634 65.6126 29.2028C56.3233 26.3919 47.0735 30.6281 40.5815 37.4376C37.164 41.0139 33.9312 46.5565 34.9076 51.2941L78.4911 57.1403C78.5042 57.1271 78.5043 57.1139 78.5043 57.1139C78.5043 57.0743 78.5174 57.0215 78.5174 56.9819C78.6494 56.8896 78.7418 56.7312 78.7418 56.5596C78.755 53.9467 78.0556 51.8748 78.016 51.7824C77.9369 51.5581 77.7521 51.4129 77.4882 51.4261C74.8492 51.5317 72.7644 50.9378 71.4845 49.6973C70.3101 48.5624 70.1254 47.256 70.1254 46.5829C70.1254 45.8175 70.3365 44.6958 71.3393 43.7456C72.9623 42.2016 76.1819 41.5154 80.6682 41.7397C80.8794 41.7529 81.262 41.555 81.6447 41.423C88.8228 38.2822 91.8049 20.9417 91.8049 20.9417C94.9321 23.8318 112.31 29.6251 120.188 30.7205C120.214 31.8554 120.227 32.9639 120.254 34.046C120.399 41.3702 120.438 48.6812 120.267 54.0787C120.254 54.369 120.979 53.8411 120.966 53.9335C120.94 54.303 122.589 53.2868 124.621 52.4818L140.785 46.055C140.68 44.1547 140.205 42.2676 139.254 40.486Z" fill="#000200"/>
<path d="M91.2111 49.2882C90.1951 49.2882 89.1659 49.0506 88.2158 48.5756C85.6956 47.3219 84.2441 44.7485 84.2177 41.5285C84.2177 41.2382 84.4552 41.0006 84.7455 41.0006C85.0358 41.0006 85.2733 41.2382 85.2733 41.5285C85.2865 44.3394 86.5269 46.5565 88.6777 47.6254C90.5118 48.536 92.689 48.404 94.1932 47.2691C95.9218 45.9758 96.5683 43.64 96.0537 40.6971C96.0009 40.4068 96.1989 40.1297 96.476 40.0769C96.7663 40.0373 97.0433 40.222 97.0961 40.4992C97.901 45.0256 96.0273 47.2031 94.8398 48.1005C93.8105 48.8923 92.5306 49.2882 91.2111 49.2882Z" fill="#000200"/>
<path d="M112.416 48.4305C111.532 48.4305 110.648 48.2193 109.816 47.797C107.468 46.6093 106.122 43.9832 106.122 40.5916C106.122 40.3013 106.359 40.0637 106.649 40.0637C106.94 40.0637 107.177 40.3013 107.177 40.5916C107.177 43.5609 108.312 45.8439 110.291 46.8468C111.848 47.6387 113.696 47.5067 115.094 46.4773C116.796 45.2368 117.522 42.9142 117.074 40.1297C117.021 39.8394 117.219 39.5622 117.509 39.5227C117.799 39.4831 118.063 39.6678 118.116 39.9581C118.631 43.1518 117.747 45.8439 115.714 47.3351C114.738 48.0741 113.577 48.4305 112.416 48.4305Z" fill="#000200"/>
<path d="M96.7795 44.0624C96.5947 44.0624 96.41 43.9568 96.3176 43.7852C96.1725 43.5345 96.2648 43.2046 96.5287 43.0594C96.7531 42.9406 102.071 40.0769 106.9 42.3732C107.164 42.492 107.283 42.8087 107.151 43.0726C107.019 43.3365 106.715 43.4553 106.438 43.3233C102.11 41.2647 97.0829 43.9568 97.0434 43.9832C96.951 44.0492 96.8586 44.0624 96.7795 44.0624Z" fill="#000200"/>
<path d="M216.499 96.2686C210.363 60.5715 197.59 53.762 184.712 51.7297C167.307 48.9716 154.666 56.1374 147.158 73.0424C143.173 82.0162 143.556 84.0749 144.466 84.9195C145.364 85.764 146.855 85.1306 147.897 84.5763C150.22 83.3491 150.958 81.3168 151.671 79.3504C152.054 78.2815 152.463 77.173 153.122 76.1832C153.122 76.1436 153.122 76.0908 153.136 76.0381C153.281 75.6026 153.426 75.1539 153.545 74.7052C153.545 74.692 153.558 74.6656 153.558 74.6524C153.347 74.5204 153.057 74.5468 152.872 74.7448C151.711 76.0513 151.17 77.5425 150.655 78.9809C149.956 80.9209 149.349 82.5836 147.383 83.6262C145.799 84.4708 145.311 84.2596 145.179 84.1277C144.796 83.7713 144.321 82.0162 148.122 73.4515C155.405 57.048 167.663 50.0801 184.54 52.759C197.036 54.7386 209.426 61.4029 215.456 96.4402C218.346 113.279 216.287 126.238 209.334 134.988C200.005 146.72 183.564 148.95 171.991 149.61C171.701 149.623 171.477 149.874 171.49 150.164C171.503 150.441 171.741 150.666 172.018 150.666C172.031 150.666 172.044 150.666 172.044 150.666C183.814 149.992 200.559 147.709 210.152 135.648C217.317 126.661 219.441 113.411 216.499 96.2686Z" fill="#000200"/>
<path d="M157.305 83.0455C157.266 83.0455 157.226 83.0455 157.186 83.0323C154.284 82.3724 152.608 81.2639 152.054 79.6275C151.17 77.0278 153.07 73.2271 158.625 66.4968C158.809 66.2724 159.139 66.2329 159.377 66.4308C159.601 66.6156 159.628 66.9455 159.443 67.183C154.231 73.4911 152.318 77.1201 153.056 79.2976C153.479 80.5513 154.917 81.4355 157.424 82.0161C157.714 82.0821 157.886 82.3592 157.82 82.6496C157.754 82.8739 157.543 83.0455 157.305 83.0455Z" fill="#000200"/>
<path d="M162.095 85.1042C162.082 85.1042 162.069 85.1042 162.056 85.1042C158.981 84.8403 157.081 83.7845 156.421 81.9502C154.877 77.7536 160.485 71.472 162.966 68.9778C163.177 68.7667 163.507 68.7667 163.718 68.9778C163.929 69.189 163.929 69.5189 163.718 69.73C158.915 74.5732 156.5 79.1129 157.411 81.5939C157.925 82.9927 159.522 83.8241 162.148 84.0485C162.438 84.0749 162.649 84.3256 162.636 84.6159C162.597 84.8931 162.372 85.1042 162.095 85.1042Z" fill="#000200"/>
<path d="M176.94 123.414C176.86 123.414 176.821 123.414 176.821 123.414C176.531 123.401 176.306 123.15 176.319 122.86C176.333 122.57 176.597 122.345 176.874 122.359C177.269 122.385 186.466 122.675 187.311 109.531C188.182 96.0971 185.569 84.7875 179.974 77.7008C179.222 76.7375 178.088 76.1568 176.86 76.0908C175.62 76.0249 174.406 76.4999 173.535 77.3841C171.345 79.6144 169.788 81 168.891 81.4883C168.363 81.7786 168.059 82.0689 168.02 82.3065C167.967 82.6628 168.442 83.1907 168.877 83.6658C169.26 84.0749 169.643 84.5103 169.867 84.9854C170.223 85.7508 169.88 86.6878 169.036 87.3344C167.822 88.245 165.513 88.5485 162.992 86.3975C158.902 82.9003 161.541 78.6906 165.909 71.7359C166.067 71.4852 166.397 71.4192 166.634 71.5644C166.885 71.7227 166.951 72.0526 166.806 72.2902C162.161 79.6803 160.419 82.7816 163.679 85.5793C165.724 87.3344 167.492 87.1629 168.389 86.4767C168.825 86.1467 169.036 85.7112 168.904 85.4209C168.759 85.091 168.416 84.7215 168.099 84.3784C167.505 83.7317 166.832 83.0059 166.977 82.1349C167.07 81.5411 167.532 81.0264 168.376 80.5513C168.93 80.2478 170.144 79.3108 172.783 76.6319C173.865 75.5234 175.383 74.9427 176.913 75.0219C178.444 75.1011 179.856 75.8401 180.806 77.041C186.572 84.3388 189.251 95.9123 188.367 109.597C187.509 122.992 178.114 123.414 176.94 123.414Z" fill="#000200"/>
<path d="M145.232 70.4559C144.493 70.4559 143.714 70.2579 142.962 69.7433C142.25 69.255 142.157 68.6479 142.197 68.2124C142.566 64.2798 157.358 57.7079 159.034 56.9688C159.298 56.8501 160.419 56.2562 160.538 56.5334C160.657 56.7973 159.733 57.8266 159.456 57.9454C150.404 61.9044 143.424 66.3649 143.253 68.318C143.239 68.4764 143.266 68.6611 143.569 68.8723C145.245 70.0204 147.026 69.0702 148.465 68.3048C148.913 68.0673 149.309 67.8561 149.665 67.7242C149.942 67.6318 150.246 67.7769 150.338 68.0541C150.431 68.3312 150.286 68.6347 150.008 68.7271C149.731 68.8195 149.375 69.0174 148.953 69.2418C147.963 69.7432 146.644 70.4559 145.232 70.4559Z" fill="#000200"/>
<path d="M194.845 89.4723C191.481 89.4723 188.182 88.7465 185.503 87.2552C185.253 87.1101 185.16 86.7933 185.305 86.5294C185.45 86.2787 185.767 86.1863 186.031 86.3183C191.718 89.4987 200.81 88.9312 206.285 85.0514C208.542 83.4546 211.089 80.6569 210.363 76.3944C210.31 76.104 210.508 75.8269 210.798 75.7873C211.089 75.7477 211.366 75.9325 211.405 76.2228C212.039 79.9707 210.442 83.415 206.892 85.9224C203.581 88.2714 199.16 89.4723 194.845 89.4723Z" fill="#000200"/>
<path d="M36.7153 146.192C36.623 146.192 36.5306 146.165 36.4383 146.113C28.1385 141.164 22.9265 134.341 20.934 125.803C18.2818 114.493 22.1216 103.078 26.5815 96.163C27.2677 95.094 27.835 93.8008 28.3892 92.5603C29.4053 90.2508 30.3685 88.0734 32.0443 87.1496C32.295 87.0044 32.6249 87.0968 32.77 87.3607C32.9152 87.6115 32.8096 87.9414 32.5589 88.0734C31.1866 88.8256 30.3025 90.8447 29.3657 92.9825C28.7983 94.2758 28.2177 95.6087 27.4788 96.7436C23.1376 103.474 19.4034 114.586 21.9764 125.565C23.9029 133.813 28.9566 140.412 36.9924 145.202C37.2431 145.347 37.3223 145.677 37.1772 145.928C37.0716 146.099 36.9001 146.192 36.7153 146.192Z" fill="#000200"/>
<path d="M35.1847 124.193C34.9868 124.193 34.8153 124.087 34.7097 123.902C33.0735 120.775 33.7597 118.413 34.9472 117.251C36.1348 116.09 37.9161 115.892 39.4731 116.75C42.2309 118.254 43.6428 118.043 43.9331 117.542C44.3289 116.829 43.2997 114.48 39.0113 112.065C37.1772 111.022 35.4882 110.811 33.984 111.418C31.7672 112.316 29.9463 114.995 28.7191 119.165C28.64 119.442 28.3365 119.6 28.0594 119.521C27.7823 119.442 27.6239 119.138 27.7031 118.861C29.0226 114.361 31.0547 111.445 33.5881 110.429C35.409 109.69 37.4015 109.927 39.5259 111.128C44.1046 113.728 45.6748 116.578 44.8567 118.043C44.2762 119.099 42.4156 119.561 38.9717 117.674C37.8237 117.04 36.5306 117.172 35.6861 118.003C34.7757 118.901 34.2875 120.788 35.6466 123.414C35.7785 123.678 35.6861 123.995 35.4222 124.127C35.3431 124.166 35.2639 124.193 35.1847 124.193Z" fill="#000200"/>
<path d="M26.0405 115.021C25.9878 115.021 25.935 115.008 25.8822 114.995C25.6051 114.902 25.4468 114.612 25.5259 114.335C26.7135 110.481 28.8247 107.71 31.6353 106.311C34.1028 105.084 37.0189 104.992 39.8558 106.034C44.2762 107.657 46.5589 109.188 46.8096 110.732C46.8888 111.234 46.7964 111.973 45.8992 112.712C44.329 113.992 42.0198 113.939 41.9143 113.926C41.624 113.912 41.3864 113.675 41.3996 113.385C41.4128 113.094 41.6503 112.896 41.9406 112.87C41.9538 112.87 43.9727 112.91 45.2262 111.893C45.8464 111.392 45.7804 111.036 45.754 110.917C45.6749 110.402 44.8832 109.017 39.4732 107.037C36.9133 106.1 34.2875 106.179 32.0839 107.275C29.5372 108.541 27.6108 111.088 26.5156 114.665C26.476 114.876 26.2649 115.021 26.0405 115.021Z" fill="#000200"/>
<path d="M24.4175 111.102C24.3383 111.102 24.2592 111.088 24.1932 111.049C23.9293 110.93 23.8105 110.613 23.9425 110.349C29.1018 99.3697 33.1395 99.9899 37.0584 100.584C40.7662 101.151 46.2686 102.933 46.4137 105.572C46.5193 107.631 44.6852 108.555 43.7087 108.753C43.4184 108.805 43.1413 108.621 43.0886 108.343C43.0226 108.053 43.2073 107.776 43.4976 107.723C43.5768 107.71 45.4505 107.288 45.3581 105.638C45.279 104.002 40.9378 102.26 36.9397 101.653C33.2186 101.085 29.7351 100.557 24.9057 110.811C24.8002 110.996 24.6154 111.102 24.4175 111.102Z" fill="#000200"/>
<path d="M23.4806 103.936C23.4015 103.936 23.3223 103.923 23.2563 103.883C22.9924 103.764 22.8737 103.447 23.0056 103.184C27.6503 93.2992 32.2026 94.1834 35.8576 94.896C36.2799 94.9752 36.6889 95.0544 37.0848 95.1203C40.753 95.6746 46.2686 97.4694 46.4005 100.109C46.5061 102.167 44.6719 103.091 43.6955 103.289C43.4052 103.342 43.1281 103.17 43.0753 102.88C43.0094 102.59 43.1941 102.313 43.4844 102.26C43.5636 102.247 45.4373 101.824 45.3449 100.175C45.2657 98.5383 40.9245 96.7963 36.9264 96.1893C36.5174 96.1233 36.0951 96.0441 35.6597 95.9649C32.1894 95.2919 28.2704 94.5133 23.9688 103.659C23.8765 103.817 23.6786 103.936 23.4806 103.936Z" fill="#000200"/>
</svg>
